<svg width="99" height="99" viewBox="0 0 99 99" fill="none" xmlns="http://www.w3.org/2000/svg">
<g id="https://lottiefiles.com/animations/contact-card-Kucj5s62R8" clip-path="url(#clip0_3712_453)">
<g id="Clip path group">
<mask id="mask0_3712_453" style="mask-type:luminance" maskUnits="userSpaceOnUse" x="0" y="0" width="99" height="99">
<g id="__lottie_element_5521">
<path id="Vector" d="M98.7171 0H0V98.7171H98.7171V0Z" fill="white"/>
</g>
</mask>
<g mask="url(#mask0_3712_453)">
<g id="Group">
<g id="Clip path group_2">
<mask id="mask1_3712_453" style="mask-type:luminance" maskUnits="userSpaceOnUse" x="0" y="-2" width="99" height="100">
<g id="__lottie_element_5523">
<path id="Vector_2" d="M0 -1.49756H98.7171V97.2196H0V-1.49756Z" fill="white"/>
</g>
</mask>
<g mask="url(#mask1_3712_453)">
<g id="Group_2">
<g id="Group_3">
<g id="Group_4">
<path id="Vector_3" d="M70.7966 63.3962H24.9093C23.5912 63.3962 22.5227 62.3277 22.5227 61.0096V37.2523C22.5227 35.9342 23.5912 34.8657 24.9093 34.8657H70.7966C72.1147 34.8657 73.1832 35.9342 73.1832 37.2523V61.0096C73.1832 62.3277 72.1147 63.3962 70.7966 63.3962ZM70.7966 63.3962H24.9093C23.5912 63.3962 22.5227 62.3277 22.5227 61.0096V37.2523C22.5227 35.9342 23.5912 34.8657 24.9093 34.8657H70.7966C72.1147 34.8657 73.1832 35.9342 73.1832 37.2523V61.0096C73.1832 62.3277 72.1147 63.3962 70.7966 63.3962Z" fill="#FCFCFC"/>
</g>
</g>
<g id="Group_5">
<g id="Group_6">
<path id="Vector_4" d="M38.6357 55.6733H31.6292C30.1513 55.6733 28.9529 54.4749 28.9529 52.997C28.9529 51.5192 30.1513 50.3208 31.6292 50.3208H38.6357C40.1136 50.3208 41.3119 51.5192 41.3119 52.997C41.3119 54.4749 40.1136 55.6733 38.6357 55.6733Z" fill="#535EE0"/>
</g>
<g id="Group_7">
<path id="Vector_5" d="M38.2952 45.7512C38.2952 47.4978 36.8791 48.9139 35.1324 48.9139C33.3858 48.9139 31.9697 47.4978 31.9697 45.7512C31.9697 44.0045 33.3858 42.5884 35.1324 42.5884C36.8791 42.5884 38.2952 44.0045 38.2952 45.7512Z" fill="#535EE0"/>
</g>
</g>
<g id="Group_8" opacity="0.999992">
<g id="Group_9">
<path id="Vector_6" d="M66.0889 47.0322H48.5793C48.2871 47.0322 48.0502 46.765 48.0502 46.4355C48.0502 46.106 48.2871 45.8389 48.5793 45.8389H66.0889C66.3812 45.8389 66.6181 46.106 66.6181 46.4355C66.6181 46.765 66.3812 47.0322 66.0889 47.0322Z" fill="#535EE0"/>
</g>
<g id="Group_10">
<path id="Vector_7" d="M61.8594 49.7275H48.5793C48.2871 49.7275 48.0502 49.4603 48.0502 49.1308C48.0502 48.8013 48.2871 48.5342 48.5793 48.5342H61.8594C62.1516 48.5342 62.3885 48.8013 62.3885 49.1308C62.3885 49.4603 62.1516 49.7275 61.8594 49.7275Z" fill="#535EE0"/>
</g>
<g id="Group_11">
<path id="Vector_8" d="M63.7805 52.4228H48.5793C48.2871 52.4228 48.0502 52.1557 48.0502 51.8261C48.0502 51.4966 48.2871 51.2295 48.5793 51.2295H63.7805C64.0728 51.2295 64.3097 51.4966 64.3097 51.8261C64.3097 52.1557 64.0728 52.4228 63.7805 52.4228Z" fill="#535EE0"/>
</g>
</g>
</g>
</g>
</g>
</g>
</g>
</g>
</g>
<defs>
<clipPath id="clip0_3712_453">
<rect width="98.7171" height="98.7171" fill="white"/>
</clipPath>
</defs>
</svg>
