<svg width="107" height="107" viewBox="0 0 107 107" fill="none" xmlns="http://www.w3.org/2000/svg">
<g id="https://lottiefiles.com/animations/fingerprint-interaction-qpm9zWRXE1" clip-path="url(#clip0_3743_6570)">
<g id="Clip path group">
<mask id="mask0_3743_6570" style="mask-type:luminance" maskUnits="userSpaceOnUse" x="0" y="0" width="107" height="107">
<g id="__lottie_element_4268">
<path id="Vector" d="M106.167 0H0V106.167H106.167V0Z" fill="white"/>
</g>
</mask>
<g mask="url(#mask0_3743_6570)">
<g id="Group">
<g id="Group_2">
<g id="Group_3">
<path id="Vector_2" d="M53.0835 30.6738C65.4513 30.6738 75.4931 40.7155 75.4931 53.0834C75.4931 65.4512 65.4513 75.4929 53.0835 75.4929C40.7157 75.4929 30.674 65.4512 30.674 53.0834C30.674 40.7155 40.7157 30.6738 53.0835 30.6738Z" fill="#FF3567" fill-opacity="0.07"/>
</g>
</g>
<g id="Group_4">
<g id="Group_5">
<path id="Vector_3" d="M53.0835 27.7539C67.063 27.7539 78.4133 39.1042 78.4133 53.0837C78.4133 67.0632 67.063 78.4135 53.0835 78.4135C39.104 78.4135 27.7537 67.0632 27.7537 53.0837C27.7537 39.1042 39.104 27.7539 53.0835 27.7539Z" fill="#535EE0"/>
</g>
</g>
<g id="Group_6">
<g id="Group_7">
<path id="Vector_4" d="M59.1771 56.3031C59.1771 52.735 56.6385 49.8632 52.9043 49.8632C49.1703 49.8632 46.135 52.7657 46.135 56.3277C46.135 58.2587 46.5712 60.0636 47.3957 61.5388C48.2022 62.984 48.7639 63.6497 49.7974 64.6991M60.1216 42.7077C57.5755 41.3399 55.254 40.7305 52.5955 40.7305C49.912 40.7305 47.3721 41.3982 45.0443 42.7142M56.3171 64.8307C54.6161 64.3606 53.0365 63.4074 51.8963 62.2593C50.4425 60.7936 49.4064 58.5863 49.4869 56.0006C49.5358 54.4268 51.002 53.1292 52.3771 52.9989C53.6946 52.8742 55.6253 53.6418 55.8364 55.6814C56.0409 57.6559 57.2744 59.1973 59.3193 59.1973C61.3642 59.1973 62.535 57.8869 62.535 55.902C62.5351 50.6256 58.2519 46.8439 52.7686 46.8439C48.8778 46.8439 45.3188 49.0486 43.7082 52.4563C43.1592 53.6105 42.8818 54.9418 42.8818 56.4075C42.8818 58.0564 43.1713 59.632 43.7625 61.2381M63.313 49.1909C62.1241 47.5035 60.6185 46.1803 58.8321 45.2457C55.068 43.2791 50.2645 43.2851 46.5065 45.2577C44.7141 46.1985 43.2025 47.5339 42.0195 49.2334M60.2052 61.8645C59.6675 61.9552 59.1232 61.9877 58.8006 61.9877C57.4564 61.9877 56.3407 61.683 55.393 61.0606C53.7599 59.991 52.656 58.023 52.656 56.2013" stroke="#B6B6B6" stroke-width="1.24938" stroke-linecap="round" stroke-linejoin="round"/>
</g>
<g id="Group_8">
<path id="Vector_5" d="M67.4484 47.09V58.9888C67.4484 64.4066 63.0496 68.8054 57.6318 68.8054H48.4102C42.9925 68.8054 38.5937 64.4066 38.5937 58.9888V47.09C38.5937 41.6722 42.9925 37.2734 48.4102 37.2734H57.6318C63.0496 37.2734 67.4484 41.6722 67.4484 47.09Z" stroke="#B6B6B6" stroke-width="1.24938"/>
</g>
</g>
<g id="Group_9">
<g id="Group_10">
<path id="Vector_6" d="M60.2052 61.8649C59.6675 61.9556 59.1232 61.9881 58.8006 61.9881C57.4564 61.9881 56.3407 61.6834 55.3931 61.061C53.7599 59.9914 52.656 58.0234 52.656 56.2017" stroke="#0018B5" stroke-width="1.29697" stroke-linecap="round" stroke-linejoin="round"/>
</g>
<g id="Group_11">
<path id="Vector_7" d="M56.3171 64.8306C54.6161 64.3604 53.0365 63.4072 51.8964 62.2591C50.4426 60.7934 49.4065 58.5861 49.4869 56.0004C49.5359 54.4266 51.002 53.1291 52.3771 52.9988C53.6946 52.8741 55.6253 53.6416 55.8364 55.6812C56.041 57.6557 57.2744 59.1972 59.3193 59.1972C61.3643 59.1972 62.535 57.8867 62.535 55.9019C62.5351 50.6254 58.2519 46.8438 52.7686 46.8438C48.8778 46.8438 45.3188 49.0484 43.7082 52.4561C43.1592 53.6104 42.8818 54.9417 42.8818 56.4073C42.8818 58.0562 43.1713 59.6318 43.7625 61.238" stroke="#0018B5" stroke-width="1.29697" stroke-linecap="round" stroke-linejoin="round"/>
</g>
<g id="Group_12">
<path id="Vector_8" d="M59.1771 56.3032C59.1771 52.7351 56.6385 49.8633 52.9043 49.8633C49.1703 49.8633 46.135 52.7658 46.135 56.3278C46.135 58.2588 46.5712 60.0637 47.3957 61.5389C48.2022 62.9841 48.7638 63.6498 49.7974 64.6992" stroke="#0018B5" stroke-width="1.29697" stroke-linecap="round" stroke-linejoin="round"/>
</g>
<g id="Group_13">
<path id="Vector_9" d="M63.313 49.1908C62.1241 47.5034 60.6185 46.1802 58.8321 45.2456C55.068 43.279 50.2645 43.2851 46.5065 45.2576C44.7141 46.1984 43.2025 47.5338 42.0195 49.2333" stroke="#0018B5" stroke-width="1.29697" stroke-linecap="round" stroke-linejoin="round"/>
</g>
<g id="Group_14">
<path id="Vector_10" d="M60.1216 42.7077C57.5755 41.3399 55.2539 40.7305 52.5954 40.7305C49.912 40.7305 47.3721 41.3982 45.0443 42.7142" stroke="#0018B5" stroke-width="1.29697" stroke-linecap="round" stroke-linejoin="round"/>
</g>
<g id="Group_15">
<path id="Vector_11" d="M52.9118 68.8054C50.6434 68.8054 48.4102 68.8054 48.4102 68.8054C42.9925 68.8054 38.5937 64.4066 38.5937 58.9888V47.09C38.5937 41.6722 42.9925 37.2734 48.4102 37.2734H57.6318C63.0496 37.2734 67.4484 41.6722 67.4484 47.09V58.9888C67.4484 64.4066 63.0496 68.8054 57.6318 68.8054C57.6318 68.8054 55.908 68.8054 53.951 68.8054" stroke="#0018B5" stroke-width="1.29697" stroke-linecap="round" stroke-linejoin="round"/>
</g>
</g>
<g id="Group_16">
<g id="Group_17">
<path id="Vector_12" d="M60.2052 61.8649C59.6675 61.9556 59.1232 61.9881 58.8006 61.9881C57.4564 61.9881 56.3407 61.6834 55.3931 61.061C53.7599 59.9914 52.656 58.0234 52.656 56.2017" stroke="#FCFCFC" stroke-width="1.30887" stroke-linecap="round" stroke-linejoin="round"/>
</g>
<g id="Group_18">
<path id="Vector_13" d="M56.3171 64.8306C54.6161 64.3604 53.0365 63.4072 51.8964 62.2591C50.4426 60.7934 49.4065 58.5861 49.4869 56.0004C49.5359 54.4266 51.002 53.1291 52.3771 52.9988C53.6946 52.8741 55.6253 53.6416 55.8364 55.6812C56.041 57.6557 57.2744 59.1972 59.3193 59.1972C61.3643 59.1972 62.535 57.8867 62.535 55.9019C62.5351 50.6254 58.2519 46.8438 52.7686 46.8438C48.8778 46.8438 45.3188 49.0484 43.7082 52.4561C43.1592 53.6104 42.8818 54.9417 42.8818 56.4073C42.8818 58.0562 43.1713 59.6318 43.7625 61.238" stroke="#FCFCFC" stroke-width="1.30887" stroke-linecap="round" stroke-linejoin="round"/>
</g>
<g id="Group_19">
<path id="Vector_14" d="M59.1771 56.3032C59.1771 52.7351 56.6385 49.8633 52.9043 49.8633C49.1703 49.8633 46.135 52.7658 46.135 56.3278C46.135 58.2588 46.5712 60.0637 47.3957 61.5389C48.2022 62.9841 48.7638 63.6498 49.7974 64.6992" stroke="#FCFCFC" stroke-width="1.30887" stroke-linecap="round" stroke-linejoin="round"/>
</g>
<g id="Group_20">
<path id="Vector_15" d="M63.313 49.1908C62.1241 47.5034 60.6185 46.1802 58.8321 45.2456C55.068 43.279 50.2645 43.2851 46.5065 45.2576C44.7141 46.1984 43.2025 47.5338 42.0195 49.2333" stroke="#FCFCFC" stroke-width="1.30887" stroke-linecap="round" stroke-linejoin="round"/>
</g>
<g id="Group_21">
<path id="Vector_16" d="M60.1216 42.7077C57.5755 41.3399 55.2539 40.7305 52.5954 40.7305C49.912 40.7305 47.3721 41.3982 45.0443 42.7142" stroke="#FCFCFC" stroke-width="1.30887" stroke-linecap="round" stroke-linejoin="round"/>
</g>
<g id="Group_22">
<path id="Vector_17" d="M52.9587 68.8347C50.6903 68.8347 48.4571 68.8347 48.4571 68.8347C43.0394 68.8347 38.6406 64.4359 38.6406 59.0181V47.1193C38.6406 41.7015 43.0394 37.3027 48.4571 37.3027H57.6787C63.0965 37.3027 67.4952 41.7015 67.4952 47.1193V59.0181C67.4952 64.4359 63.0965 68.8347 57.6787 68.8347C57.6787 68.8347 55.2999 68.8347 52.9587 68.8347Z" stroke="#FCFCFC" stroke-width="1.30887" stroke-linecap="round" stroke-linejoin="round"/>
</g>
</g>
</g>
</g>
</g>
</g>
<defs>
<clipPath id="clip0_3743_6570">
<rect width="106.167" height="106.167" fill="white"/>
</clipPath>
</defs>
</svg>
