<svg width="77" height="77" viewBox="0 0 77 77" fill="none" xmlns="http://www.w3.org/2000/svg">
<g id="https://lottiefiles.com/animations/list-Cl8PeM1gJJ" clip-path="url(#clip0_3743_6547)">
<g id="Clip path group">
<mask id="mask0_3743_6547" style="mask-type:luminance" maskUnits="userSpaceOnUse" x="0" y="0" width="77" height="77">
<g id="__lottie_element_3515">
<path id="Vector" d="M77 0H0V77H77V0Z" fill="white"/>
</g>
</mask>
<g mask="url(#mask0_3743_6547)">
<g id="Group">
<g id="Group_2">
<g id="Group_3">
<path id="Vector_2" d="M59.6561 58.1772H30.1609C28.891 58.1772 27.861 57.1483 27.861 55.8784V53.0839C27.861 51.8146 28.891 50.7852 30.1609 50.7852H59.6561C60.926 50.7852 61.9554 51.8146 61.9554 53.0839V55.8784C61.9554 57.1483 60.926 58.1772 59.6561 58.1772Z" fill="#FCFCFC"/>
</g>
</g>
<g id="Group_4">
<g id="Group_5">
<path id="Vector_3" d="M59.6561 42.1308H30.1609C28.891 42.1308 27.861 41.1019 27.861 39.832V37.0381C27.861 35.7688 28.891 34.7388 30.1609 34.7388H59.6561C60.926 34.7388 61.9554 35.7688 61.9554 37.0381V39.832C61.9554 41.1019 60.926 42.1308 59.6561 42.1308Z" fill="#FCFCFC"/>
</g>
</g>
<g id="Group_6">
<g id="Group_7">
<path id="Vector_4" d="M59.6561 26.0854H30.1609C28.891 26.0854 27.861 25.0559 27.861 23.7866V20.9921C27.861 19.7228 28.891 18.6934 30.1609 18.6934H59.6561C60.926 18.6934 61.9554 19.7228 61.9554 20.9921V23.7866C61.9554 25.0559 60.926 26.0854 59.6561 26.0854Z" fill="#FCFCFC"/>
</g>
</g>
<g id="Group_8">
<g id="Group_9">
<path id="Vector_5" d="M24.12 54.4874C24.1164 57.039 22.0457 59.1044 19.4946 59.1008C16.943 59.0973 14.8776 57.026 14.8811 54.4749C14.8847 51.9233 16.9554 49.8579 19.5065 49.8608C22.0581 49.8644 24.1235 51.9357 24.12 54.4874Z" fill="#FCFCFC"/>
</g>
</g>
<g id="Group_10">
<g id="Group_11">
<path id="Vector_6" d="M24.1371 38.4415C24.1336 40.9931 22.0629 43.0585 19.5118 43.0549C16.9601 43.0514 14.8948 40.9807 14.8983 38.4296C14.9019 35.878 16.9726 33.812 19.5237 33.8149C22.0753 33.8185 24.1407 35.8898 24.1371 38.4415Z" fill="#FCFCFC"/>
</g>
</g>
<g id="Group_12">
<g id="Group_13">
<path id="Vector_7" d="M24.1371 22.396C24.1336 24.9471 22.0629 27.0125 19.5118 27.0095C16.9601 27.006 14.8948 24.9347 14.8983 22.3836C14.9019 19.8319 16.9726 17.7666 19.5237 17.7695C22.0753 17.7731 24.1407 19.8444 24.1371 22.396Z" fill="#FCFCFC"/>
</g>
</g>
</g>
</g>
</g>
</g>
<defs>
<clipPath id="clip0_3743_6547">
<rect width="77" height="77" fill="white"/>
</clipPath>
</defs>
</svg>
