<svg width="48" height="48" viewBox="0 0 48 48" fill="none" xmlns="http://www.w3.org/2000/svg">
<path d="M36.4728 8.17784C34.6359 11.4239 32.8284 14.6183 30.9887 17.8699C32.2293 19.7266 33.0935 21.8243 33.426 24.384C34.8557 24.384 36.2867 24.384 37.7984 24.384C38.1543 23.0076 38.7959 21.7176 39.8755 20.7939C41.8163 19.1322 44.1731 19.2518 46.1198 21.1637C47.8409 22.853 48.4722 25.9849 47.6285 28.6494C46.8111 31.2312 44.6858 32.9039 42.4608 32.672C40.2885 32.4457 38.7725 31.0435 37.9815 28.4912C37.8174 27.9631 37.627 27.814 37.1934 27.8287C35.9557 27.8692 34.7165 27.8435 33.4993 27.8435C32.5955 33.1394 30.3017 36.6854 26.2765 38.071C22.2747 39.4493 18.8852 37.863 16.0802 34.0263C14.5422 35.4433 13.0276 36.8252 11.535 38.2439C11.4032 38.3691 11.3402 38.7647 11.3783 39.0003C12.0521 43.1553 10.2738 46.8632 6.99712 47.8182C4.4865 48.5506 1.76641 47.0435 0.511098 43.7736C-0.565511 40.971 0.121466 37.2392 1.98319 35.239C3.93134 33.1468 7.1187 32.7088 9.59563 35.2464C11.2948 33.9527 13.0012 32.6536 14.7472 31.325C13.2854 26.8774 13.6765 22.7003 15.859 18.7366C14.4235 16.7032 12.9851 14.6662 11.5159 12.5868C10.2987 13.2253 9.09028 13.2732 7.88917 12.4378C6.31453 11.3392 5.43714 8.96542 5.86192 6.83637C6.33504 4.46626 7.95362 2.8911 9.87101 2.93342C12.6746 2.99599 14.5217 6.35241 13.6179 9.69596C13.5403 9.98486 13.5915 10.4983 13.7497 10.6952C15.1676 12.4672 16.6236 14.1914 18.1001 15.9672C21.6566 13.1996 25.2629 13.1297 28.998 15.7335C31.163 12.9199 33.3601 10.0658 35.5485 7.22096C34.3781 5.05695 34.4734 2.70709 35.7565 1.22209C37.088 -0.319951 38.9365 -0.410119 40.3632 0.993911C41.6566 2.26729 42.0243 4.67788 41.1996 6.4665C40.2328 8.56427 38.5762 9.17703 36.4728 8.17784Z" fill="#FCFCFC"/>
</svg>
